<?xml version="1.0" encoding="UTF-8" standalone="no"?>
<!-- Created with Inkscape (http://www.inkscape.org/) -->

<svg
   xmlns:dc="http://purl.org/dc/elements/1.1/"
   xmlns:cc="http://creativecommons.org/ns#"
   xmlns:rdf="http://www.w3.org/1999/02/22-rdf-syntax-ns#"
   xmlns:svg="http://www.w3.org/2000/svg"
   xmlns="http://www.w3.org/2000/svg"
   xmlns:sodipodi="http://sodipodi.sourceforge.net/DTD/sodipodi-0.dtd"
   xmlns:inkscape="http://www.inkscape.org/namespaces/inkscape"
   width="31.433802mm"
   height="31.012329mm"
   viewBox="0 0 31.433803 31.01233"
   version="1.1"
   id="svg8"
   inkscape:version="0.92.5 (2060ec1f9f, 2020-04-08)"
   sodipodi:docname="cer.svg">
  <defs
     id="defs2" />
  <sodipodi:namedview
     id="base"
     pagecolor="#ffffff"
     bordercolor="#666666"
     borderopacity="1.0"
     inkscape:pageopacity="0.0"
     inkscape:pageshadow="2"
     inkscape:zoom="2.8284271"
     inkscape:cx="138.95207"
     inkscape:cy="-26.68867"
     inkscape:document-units="mm"
     inkscape:current-layer="layer1"
     showgrid="false"
     fit-margin-top="0"
     fit-margin-left="0"
     fit-margin-right="0"
     fit-margin-bottom="0"
     inkscape:window-width="1846"
     inkscape:window-height="1016"
     inkscape:window-x="74"
     inkscape:window-y="27"
     inkscape:window-maximized="1" />
  <metadata
     id="metadata5">
    <rdf:RDF>
      <cc:Work
         rdf:about="">
        <dc:format>image/svg+xml</dc:format>
        <dc:type
           rdf:resource="http://purl.org/dc/dcmitype/StillImage" />
        <dc:title></dc:title>
      </cc:Work>
    </rdf:RDF>
  </metadata>
  <g
     inkscape:label="Layer 1"
     inkscape:groupmode="layer"
     id="layer1"
     transform="translate(258.02752,-306.27628)">
    <g
       id="g920"
       transform="matrix(0.25167703,0,0,0.25167703,-268.73671,284.40838)">
      <path
         sodipodi:nodetypes="cccccccc"
         inkscape:connector-curvature="0"
         id="path896"
         d="M 99.990595,151.24753 118.2357,132.76446 c 6.02714,-5.60972 14.39969,1.87117 8.48795,8.24996 l -23.1237,23.48066 c -2.16654,2.16712 -4.828425,2.29462 -7.218715,0.27763 l -13.24754,-13.28719 c -5.60942,-5.85212 2.66087,-13.69406 8.32929,-8.36895 z"
         style="fill:#1fa12e;fill-opacity:1;stroke:none;stroke-width:1.1920039;stroke-linecap:butt;stroke-linejoin:miter;stroke-miterlimit:4;stroke-dasharray:none;stroke-opacity:1" />
      <circle
         r="41.339218"
         cy="148.5"
         cx="105"
         id="path898"
         style="opacity:1;vector-effect:none;fill:none;fill-opacity:1;stroke:#1c1c1c;stroke-width:1.98667312;stroke-linecap:round;stroke-linejoin:round;stroke-miterlimit:4;stroke-dasharray:none;stroke-dashoffset:0;stroke-opacity:1;paint-order:fill markers stroke" />
      <g
         transform="translate(219.37505,-64.932439)"
         id="g912">
        <path
           style="fill:none;stroke:#050505;stroke-width:1.98667312;stroke-linecap:butt;stroke-linejoin:miter;stroke-miterlimit:4;stroke-dasharray:none;stroke-opacity:1"
           d="m -126.73688,159.26896 c 0.0401,-0.0365 0.12077,-0.10565 0.18416,-0.15898 0.66682,-0.56105 2.49744,-1.96184 2.90701,-2.29422 7.18401,-5.83018 12.62233,-4.53645 17.2996,-0.89803 3.45771,2.58789 5.87328,4.73558 8.495541,6.22928 2.960387,1.6863 5.073633,2.26142 10.595748,2.29032 2.075037,-0.0431 3.858399,0.0288 5.395073,0.19807 9.963298,1.09749 11.160095,7.63887 12.016152,12.35008 1.679271,9.00954 3.233814,11.76304 6.522081,14.64941 1.001831,0.83218 1.861989,1.69547 2.738989,2.4192 6.765429,5.58311 8.131308,9.16356 7.544561,13.6684 -0.206412,1.58476 -0.794882,2.95237 -1.41758,4.10008 -1.47896,2.63307 -2.607882,5.44829 -3.982835,7.9208 -3.445731,5.6573 -1.185377,12.60627 -0.940192,17.33988 1.43618,9.9177 -3.98212,12.80139 -8.406424,14.51423 -0.03491,0.0135 -0.112143,0.0445 -0.146924,0.0579"
           id="path902"
           inkscape:connector-curvature="0"
           sodipodi:nodetypes="csscscsccsscccsc" />
        <path
           sodipodi:nodetypes="csscsccsscccssc"
           inkscape:connector-curvature="0"
           id="path905"
           d="m -160.85747,251.64091 c -0.0894,-0.0344 -0.18238,-0.0723 -0.27261,-0.10768 -4.39261,-1.72116 -9.65983,-4.65522 -8.24145,-14.44998 0.67931,-4.69103 2.50554,-11.68258 -0.94019,-17.33988 -1.37496,-2.47251 -2.50388,-5.28773 -3.98284,-7.9208 -0.6227,-1.14771 -1.21117,-2.51532 -1.41758,-4.10008 -0.58675,-4.50484 0.77913,-8.08529 7.54456,-13.6684 0.877,-0.72373 1.73716,-1.58702 2.73899,-2.4192 3.28827,-2.88637 4.84281,-5.63987 6.52208,-14.64941 0.85606,-4.71121 2.05286,-11.25259 12.01615,-12.35008 1.53668,-0.16927 3.32004,-0.24117 5.39508,-0.19807 5.52211,-0.0289 7.63536,-0.60401 10.59575,-2.29032 1.00011,-0.56969 1.97017,-1.2345 2.97943,-1.98259 0.32403,-0.24018 0.65211,-0.48895 0.98652,-0.7459 0.0745,-0.0573 0.14932,-0.1149 0.22447,-0.17295"
           style="fill:none;stroke:#000000;stroke-width:1.98667312;stroke-linecap:butt;stroke-linejoin:miter;stroke-miterlimit:4;stroke-dasharray:none;stroke-opacity:1" />
        <path
           style="fill:none;stroke:#000000;stroke-width:1.98667312;stroke-linecap:butt;stroke-linejoin:miter;stroke-miterlimit:4;stroke-dasharray:none;stroke-opacity:1"
           d="m -160.92654,251.61525 c 0.59642,0.22951 1.20884,0.52107 1.7451,0.74959 4.24209,1.80526 10.06814,3.59342 12.85351,8.67163 1.45755,2.42475 3.33486,4.80712 4.87972,7.40207 0.68433,1.11207 1.57633,2.30411 2.84708,3.27327 3.61222,2.75495 7.39686,3.3564 15.6099,0.27614 1.06465,-0.39929 2.24188,-0.7144 3.46278,-1.16782 4.14161,-1.41098 7.30353,-1.38542 15.95038,1.65161 4.510582,1.60723 10.777452,3.83172 16.696977,-4.25721 0.912992,-1.2476 1.864593,-2.75757 2.861956,-4.57771 2.778665,-4.77217 4.330949,-6.31715 7.268851,-8.04234 0.992516,-0.58282 2.052498,-1.09217 3.204213,-1.59395 0.369767,-0.16111 0.749,-0.32144 1.138478,-0.48317 0.08682,-0.036 4.430268,-1.84331 4.518062,-1.87955"
           id="path907"
           inkscape:connector-curvature="0"
           sodipodi:nodetypes="cccsccsscccssc" />
      </g>
    </g>
  </g>
</svg>
