<?xml version="1.0" encoding="UTF-8" standalone="no"?>
<!-- Created with Inkscape (http://www.inkscape.org/) -->

<svg
   xmlns:dc="http://purl.org/dc/elements/1.1/"
   xmlns:cc="http://creativecommons.org/ns#"
   xmlns:rdf="http://www.w3.org/1999/02/22-rdf-syntax-ns#"
   xmlns:svg="http://www.w3.org/2000/svg"
   xmlns="http://www.w3.org/2000/svg"
   xmlns:sodipodi="http://sodipodi.sourceforge.net/DTD/sodipodi-0.dtd"
   xmlns:inkscape="http://www.inkscape.org/namespaces/inkscape"
   width="151.66676mm"
   height="180.34044mm"
   viewBox="0 0 151.66676 180.34043"
   version="1.1"
   id="svg8"
   inkscape:version="0.92.5 (2060ec1f9f, 2020-04-08)"
   sodipodi:docname="aaaa.svg">
  <defs
     id="defs2" />
  <sodipodi:namedview
     id="base"
     pagecolor="#ffffff"
     bordercolor="#666666"
     borderopacity="1.0"
     inkscape:pageopacity="0.0"
     inkscape:pageshadow="2"
     inkscape:zoom="0.56875"
     inkscape:cx="86.949319"
     inkscape:cy="149.46955"
     inkscape:document-units="mm"
     inkscape:current-layer="layer1"
     showgrid="false"
     inkscape:window-width="1846"
     inkscape:window-height="1016"
     inkscape:window-x="74"
     inkscape:window-y="27"
     inkscape:window-maximized="1"
     fit-margin-top="0"
     fit-margin-left="0"
     fit-margin-right="0"
     fit-margin-bottom="0" />
  <metadata
     id="metadata5">
    <rdf:RDF>
      <cc:Work
         rdf:about="">
        <dc:format>image/svg+xml</dc:format>
        <dc:type
           rdf:resource="http://purl.org/dc/dcmitype/StillImage" />
        <dc:title></dc:title>
      </cc:Work>
    </rdf:RDF>
  </metadata>
  <g
     inkscape:label="Layer 1"
     inkscape:groupmode="layer"
     id="layer1"
     transform="translate(23.024422,-6.2480463)">
    <g
       id="g1039"
       transform="matrix(0.03527778,0,0,-0.03527778,-37.486827,186.64669)"
       style="fill:#ffffff;fill-opacity:1;stroke:none">
      <path
         id="path1025"
         d="m 2753,5112 c -12,-2 -34,-17 -48,-34 -26,-31 -26,-32 -23,-185 l 3,-155 28,-24 c 40,-34 90,-32 128,5 l 29,29 v 150 c 0,146 -1,151 -25,180 -25,30 -52,40 -92,34 z"
         inkscape:connector-curvature="0"
         style="fill:#ffffff;fill-opacity:1" />
      <path
         id="path1027"
         d="m 1648,4785 c -35,-19 -48,-44 -48,-89 0,-31 10,-44 96,-123 53,-48 108,-96 122,-105 38,-25 75,-22 111,8 25,21 31,33 31,67 0,38 -6,47 -59,98 -158,150 -200,174 -253,144 z"
         inkscape:connector-curvature="0"
         style="fill:#ffffff;fill-opacity:1" />
      <path
         id="path1029"
         d="m 3823,4787 c -30,-17 -202,-167 -219,-192 -52,-74 39,-176 119,-134 22,12 192,161 214,189 15,18 17,75 3,101 -11,20 -60,49 -82,49 -7,-1 -23,-6 -35,-13 z"
         inkscape:connector-curvature="0"
         style="fill:#ffffff;fill-opacity:1" />
      <path
         id="path1031"
         d="m 2556,4214 c -55,-20 -98,-55 -135,-110 -47,-72 -68,-140 -101,-327 -103,-584 -229,-887 -477,-1147 -80,-85 -210,-197 -217,-189 -2,2 -11,20 -21,39 -33,65 -67,99 -128,130 l -60,30 -396,-1 c -277,0 -406,-4 -428,-12 -66,-25 -119,-73 -152,-137 l -31,-63 V 1370 c 0,-1171 -4,-1107 66,-1188 19,-22 57,-52 86,-66 l 52,-26 h 406 406 l 52,26 c 59,29 96,69 126,135 l 22,45 29,-18 C 1757,216 2023,119 2225,69 2481,7 2477,7 3289,3 c 491,-3 771,-1 823,6 97,13 172,47 236,109 65,62 99,124 118,213 18,88 7,173 -32,250 -13,27 -24,50 -24,52 0,2 18,9 39,16 84,25 182,119 229,221 22,46 26,70 26,150 1,114 -15,164 -84,254 l -46,62 34,40 c 136,155 134,388 -6,536 l -35,37 34,38 c 49,55 75,100 94,167 47,163 -26,351 -173,444 -98,62 -92,62 -794,62 -351,0 -638,4 -638,8 0,4 31,125 69,267 37,143 75,285 82,315 9,36 14,109 13,210 -1,138 -4,165 -28,244 -82,271 -251,453 -473,511 -71,18 -146,18 -197,-1 z m 225,-211 c 118,-55 208,-173 261,-343 20,-65 23,-95 22,-215 l -1,-140 -96,-359 c -54,-198 -97,-372 -97,-387 0,-15 11,-41 24,-56 l 24,-28 729,-5 c 800,-5 753,-2 815,-67 87,-91 71,-247 -34,-319 l -41,-29 -268,-5 -269,-5 -27,-28 c -38,-38 -39,-99 -1,-132 26,-22 33,-23 280,-27 239,-3 256,-5 300,-26 160,-78 156,-308 -7,-383 -35,-16 -68,-19 -289,-19 h -248 l -34,-34 c -36,-36 -41,-59 -22,-101 23,-51 47,-55 299,-55 266,0 295,-5 355,-66 51,-51 68,-99 61,-172 -7,-70 -46,-127 -107,-162 -44,-24 -51,-25 -305,-30 -143,-3 -266,-9 -273,-13 -6,-5 -19,-22 -28,-38 -19,-38 -11,-79 22,-110 24,-22 35,-24 173,-29 140,-5 150,-6 189,-32 138,-92 125,-296 -25,-372 -29,-14 -114,-16 -821,-16 -754,0 -795,1 -912,21 -253,43 -557,146 -721,245 l -79,48 v 845 846 l 102,75 c 57,41 152,125 213,185 298,298 453,650 561,1275 43,252 73,306 165,298 25,-3 75,-18 110,-35 z m -1366,-1578 25,-24 V 1367 c 0,-1031 0,-1034 -21,-1061 l -20,-26 H 1020 641 l -20,26 c -21,27 -21,30 -21,1061 v 1034 l 25,24 24,25 h 371 371 z"
         inkscape:connector-curvature="0"
         style="fill:#ffffff;fill-opacity:1" />
      <path
         id="path1033"
         d="m 998,2074 c -57,-30 -65,-98 -19,-145 48,-48 116,-38 147,22 20,40 11,82 -28,114 -33,28 -61,31 -100,9 z"
         inkscape:connector-curvature="0"
         style="fill:#ffffff;fill-opacity:1" />
      <path
         id="path1035"
         d="m 1253,3912 c -50,-39 -51,-105 -3,-145 25,-22 41,-24 168,-31 156,-7 184,-1 208,45 20,40 17,74 -10,105 -20,24 -34,29 -97,35 -137,14 -242,10 -266,-9 z"
         inkscape:connector-curvature="0"
         style="fill:#ffffff;fill-opacity:1" />
      <path
         id="path1037"
         d="m 4024,3921 c -40,-4 -69,-13 -82,-25 -46,-41 -35,-124 19,-152 23,-12 55,-13 171,-8 l 143,7 33,33 c 17,17 32,42 32,53 0,30 -26,78 -49,91 -21,10 -163,11 -267,1 z"
         inkscape:connector-curvature="0"
         style="fill:#ffffff;fill-opacity:1" />
    </g>
  </g>
</svg>
