<?xml version="1.0" encoding="UTF-8" standalone="no"?>
<!-- Created with Inkscape (http://www.inkscape.org/) -->

<svg
   xmlns:dc="http://purl.org/dc/elements/1.1/"
   xmlns:cc="http://creativecommons.org/ns#"
   xmlns:rdf="http://www.w3.org/1999/02/22-rdf-syntax-ns#"
   xmlns:svg="http://www.w3.org/2000/svg"
   xmlns="http://www.w3.org/2000/svg"
   xmlns:sodipodi="http://sodipodi.sourceforge.net/DTD/sodipodi-0.dtd"
   xmlns:inkscape="http://www.inkscape.org/namespaces/inkscape"
   width="180.04128mm"
   height="180.22067mm"
   viewBox="0 0 180.04127 180.22066"
   version="1.1"
   id="svg8"
   inkscape:version="0.92.5 (2060ec1f9f, 2020-04-08)"
   sodipodi:docname="uuu.svg">
  <defs
     id="defs2" />
  <sodipodi:namedview
     id="base"
     pagecolor="#ffffff"
     bordercolor="#666666"
     borderopacity="1.0"
     inkscape:pageopacity="0.0"
     inkscape:pageshadow="2"
     inkscape:zoom="0.56875"
     inkscape:cx="174.72898"
     inkscape:cy="164.24666"
     inkscape:document-units="mm"
     inkscape:current-layer="layer1"
     showgrid="false"
     inkscape:window-width="1846"
     inkscape:window-height="1016"
     inkscape:window-x="74"
     inkscape:window-y="27"
     inkscape:window-maximized="1"
     fit-margin-top="0"
     fit-margin-left="0"
     fit-margin-right="0"
     fit-margin-bottom="0" />
  <metadata
     id="metadata5">
    <rdf:RDF>
      <cc:Work
         rdf:about="">
        <dc:format>image/svg+xml</dc:format>
        <dc:type
           rdf:resource="http://purl.org/dc/dcmitype/StillImage" />
        <dc:title></dc:title>
      </cc:Work>
    </rdf:RDF>
  </metadata>
  <g
     inkscape:label="Layer 1"
     inkscape:groupmode="layer"
     id="layer1"
     transform="translate(53.925282,-10.277604)">
    <g
       id="g1141"
       transform="matrix(0.03527778,0,0,-0.03527778,-54.204121,190.54706)"
       style="fill:#ffffff;stroke:none;fill-opacity:1">
      <path
         id="path1127"
         d="m 2504,5089 c -17,-19 -19,-38 -19,-196 v -175 l 28,-24 c 15,-13 37,-24 47,-24 10,0 32,11 47,24 l 28,24 v 175 c 0,158 -2,177 -19,196 -13,14 -31,21 -56,21 -25,0 -43,-7 -56,-21 z"
         inkscape:connector-curvature="0"
         style="fill:#ffffff;fill-opacity:1" />
      <path
         id="path1129"
         d="m 1743,4690 c -32,-13 -56,-55 -49,-85 6,-25 330,-327 373,-347 49,-24 113,32 99,86 -5,21 -325,317 -370,343 -25,14 -24,14 -53,3 z"
         inkscape:connector-curvature="0"
         style="fill:#ffffff;fill-opacity:1" />
      <path
         id="path1131"
         d="m 3324,4687 c -45,-26 -365,-322 -370,-343 -13,-53 49,-109 96,-88 23,11 323,277 356,317 30,36 30,59 2,91 -29,31 -57,39 -84,23 z"
         inkscape:connector-curvature="0"
         style="fill:#ffffff;fill-opacity:1" />
      <path
         id="path1133"
         d="m 723,4456 c -23,-19 -46,-71 -108,-235 l -80,-211 h -40 c -116,-1 -404,-21 -427,-31 -49,-20 -72,-79 -54,-136 4,-13 88,-88 186,-168 l 179,-144 -30,-108 c -97,-355 -93,-337 -75,-374 18,-39 61,-69 98,-69 25,0 112,52 301,179 60,40 114,70 120,68 7,-3 93,-58 192,-123 159,-104 185,-118 223,-119 37,0 48,5 73,33 20,22 29,43 29,67 0,19 -25,125 -55,236 -31,111 -54,205 -53,210 2,4 77,66 168,138 91,73 173,144 182,159 29,44 23,89 -14,126 -37,36 -37,37 -360,52 -113,5 -138,9 -143,23 -4,9 -38,99 -77,201 -84,221 -81,216 -118,235 -42,22 -84,19 -117,-9 z m 131,-373 c 35,-92 71,-169 87,-187 26,-30 29,-30 150,-37 68,-4 153,-8 187,-8 35,-1 62,-5 60,-10 -1,-5 -52,-48 -113,-96 -146,-116 -173,-143 -180,-176 -4,-18 10,-86 40,-195 25,-92 44,-171 43,-175 -2,-5 -35,12 -73,38 -163,110 -239,153 -268,153 -21,0 -76,-30 -185,-101 -85,-55 -155,-99 -157,-97 -1,2 17,75 41,163 43,155 51,206 38,239 -4,9 -72,69 -152,134 l -145,117 186,10 c 163,9 190,13 214,31 27,20 38,44 127,282 15,39 31,72 34,72 4,0 34,-71 66,-157 z"
         inkscape:connector-curvature="0"
         style="fill:#ffffff;fill-opacity:1" />
      <path
         id="path1135"
         d="m 2497,4460 c -25,-20 -55,-90 -157,-361 l -32,-87 -141,-6 c -312,-14 -318,-15 -354,-51 -33,-33 -43,-78 -27,-119 4,-11 310,-266 362,-302 2,-1 -24,-101 -57,-223 -50,-183 -58,-227 -50,-249 25,-67 91,-97 147,-68 17,8 103,63 191,121 89,58 167,108 174,111 7,2 88,-45 181,-106 209,-138 220,-143 260,-136 36,7 80,49 89,84 3,14 -20,116 -54,244 -33,121 -59,221 -57,223 81,59 357,288 362,300 16,42 6,87 -27,120 -36,36 -42,37 -353,51 l -141,6 -79,207 c -88,232 -107,261 -172,261 -24,0 -49,-8 -65,-20 z m 127,-372 c 32,-84 64,-164 72,-176 26,-39 69,-49 247,-57 92,-4 167,-10 167,-14 0,-4 -61,-56 -136,-116 -95,-76 -141,-119 -151,-142 -13,-32 -11,-45 32,-204 26,-94 45,-174 43,-179 -2,-5 -68,35 -148,88 -130,86 -150,96 -190,96 -40,0 -60,-10 -190,-96 -80,-53 -146,-93 -148,-88 -2,5 17,85 43,179 43,158 45,172 32,203 -10,23 -57,68 -151,143 -75,60 -136,113 -136,116 0,4 75,10 168,14 177,8 220,18 245,57 9,12 41,92 73,176 31,83 60,152 64,152 4,0 33,-69 64,-152 z"
         inkscape:connector-curvature="0"
         style="fill:#ffffff;fill-opacity:1" />
      <path
         id="path1137"
         d="m 4274,4461 c -24,-15 -38,-37 -59,-93 -86,-226 -135,-351 -137,-353 -2,-2 -104,-8 -227,-14 -123,-7 -232,-16 -242,-21 -55,-30 -74,-101 -41,-152 9,-15 91,-86 182,-159 91,-72 166,-134 168,-138 1,-4 -22,-99 -53,-212 -30,-112 -55,-219 -55,-236 0,-22 10,-43 29,-65 25,-28 36,-33 73,-33 38,1 64,15 223,119 99,65 185,120 192,123 6,2 60,-28 120,-68 189,-127 276,-179 301,-179 37,0 80,30 98,69 18,37 22,19 -75,374 l -29,107 174,141 c 96,77 179,149 184,159 27,50 4,123 -46,148 -18,10 -320,32 -429,32 h -40 l -80,211 c -62,164 -85,216 -108,235 -35,29 -80,31 -123,5 z m 92,-293 c 89,-238 100,-262 127,-282 24,-18 51,-22 215,-31 l 187,-10 -147,-118 c -80,-65 -149,-125 -152,-133 -13,-33 -4,-85 38,-239 24,-88 42,-161 41,-163 -1,-2 -72,42 -157,98 -110,71 -163,100 -185,100 -28,0 -139,-65 -298,-173 -22,-15 -41,-23 -43,-19 -1,5 18,84 43,176 30,109 44,177 40,195 -7,33 -34,60 -180,176 -60,48 -111,91 -113,96 -2,5 25,9 60,10 35,0 119,4 187,8 121,7 124,7 150,37 16,18 52,95 87,187 32,86 62,157 66,157 3,0 19,-33 34,-72 z"
         inkscape:connector-curvature="0"
         style="fill:#ffffff;fill-opacity:1" />
      <path
         id="path1139"
         d="m 2425,2774 c -229,-50 -421,-236 -482,-467 -26,-99 -21,-243 11,-344 40,-124 135,-256 235,-326 29,-20 30,-18 -34,-41 -83,-30 -229,-110 -307,-169 -72,-55 -180,-161 -229,-226 l -25,-35 -70,71 c -76,77 -192,158 -279,194 -30,12 -55,25 -55,29 0,3 18,24 41,45 286,280 123,773 -277,835 -243,38 -486,-125 -549,-367 -43,-164 2,-335 123,-462 29,-31 48,-57 43,-59 C 526,1437 393,1364 345,1327 161,1188 10,946 10,790 10,687 62,601 152,556 l 52,-26 h 588 588 v -93 c 0,-117 20,-197 68,-267 45,-65 101,-110 179,-142 l 58,-23 820,-3 c 524,-2 848,1 897,7 123,17 215,72 277,169 41,65 61,148 61,259 v 93 h 588 588 l 52,26 c 134,67 176,207 111,375 -81,209 -268,405 -473,495 l -64,28 52,58 c 93,102 136,209 136,338 0,299 -274,536 -566,490 -398,-64 -561,-556 -275,-835 23,-21 41,-42 41,-45 0,-4 -25,-17 -55,-29 -87,-36 -203,-117 -279,-194 l -69,-70 -31,39 c -59,75 -152,166 -224,221 -78,59 -224,139 -307,169 -64,23 -63,21 -34,41 138,97 244,280 263,458 31,285 -168,578 -449,665 -93,28 -228,34 -320,14 z m 226,-144 c 84,-15 189,-72 253,-136 177,-177 186,-473 20,-663 -153,-176 -429,-212 -630,-83 -76,50 -128,109 -170,197 -171,357 137,757 527,685 z M 1002,2174 c 147,-52 248,-223 221,-373 -24,-127 -106,-228 -218,-270 -80,-31 -197,-26 -270,9 -64,31 -134,101 -165,165 -34,69 -36,216 -4,286 76,163 266,243 436,183 z m 3293,15 c 112,-21 204,-89 252,-188 25,-49 28,-67 28,-151 0,-89 -2,-99 -34,-158 -63,-115 -155,-173 -286,-180 -105,-5 -178,21 -251,90 -94,88 -130,206 -100,325 34,141 131,235 271,263 57,11 55,11 120,-1 z M 2771,1495 c 406,-86 717,-398 801,-805 15,-75 19,-125 16,-235 -3,-127 -5,-144 -28,-185 -14,-24 -45,-58 -68,-75 l -44,-30 h -888 -888 l -44,30 c -23,17 -54,51 -68,75 -24,44 -25,51 -24,225 1,165 3,187 27,268 55,178 129,307 252,436 172,179 390,284 655,315 58,7 230,-4 301,-19 z M 1080,1329 c 149,-40 296,-134 384,-245 l 44,-56 -28,-62 c -26,-57 -71,-195 -85,-258 l -5,-28 H 806 222 l -31,31 c -25,25 -31,39 -31,74 0,97 90,255 209,367 191,180 454,245 711,177 z m 3340,4 c 112,-26 237,-93 323,-173 123,-115 217,-277 217,-374 0,-36 -6,-50 -31,-75 l -31,-31 h -584 -584 l -5,28 c -14,63 -59,201 -85,258 l -28,62 44,56 c 107,136 288,237 474,265 79,11 202,5 290,-16 z"
         inkscape:connector-curvature="0"
         style="fill:#ffffff;fill-opacity:1" />
    </g>
  </g>
</svg>
