<?xml version="1.0" encoding="UTF-8" standalone="no"?>
<!-- Created with Inkscape (http://www.inkscape.org/) -->

<svg
   xmlns:dc="http://purl.org/dc/elements/1.1/"
   xmlns:cc="http://creativecommons.org/ns#"
   xmlns:rdf="http://www.w3.org/1999/02/22-rdf-syntax-ns#"
   xmlns:svg="http://www.w3.org/2000/svg"
   xmlns="http://www.w3.org/2000/svg"
   xmlns:sodipodi="http://sodipodi.sourceforge.net/DTD/sodipodi-0.dtd"
   xmlns:inkscape="http://www.inkscape.org/namespaces/inkscape"
   width="9.3789501mm"
   height="9.3789501mm"
   viewBox="0 0 9.3789501 9.3789501"
   version="1.1"
   id="svg8"
   inkscape:version="0.92.5 (2060ec1f9f, 2020-04-08)"
   sodipodi:docname="logo-icon.svg">
  <defs
     id="defs2" />
  <sodipodi:namedview
     id="base"
     pagecolor="#ffffff"
     bordercolor="#666666"
     borderopacity="1.0"
     inkscape:pageopacity="0.0"
     inkscape:pageshadow="2"
     inkscape:zoom="1.6676841"
     inkscape:cx="2.1306004"
     inkscape:cy="-28.82623"
     inkscape:document-units="mm"
     inkscape:current-layer="g832"
     showgrid="false"
     fit-margin-top="0"
     fit-margin-left="0"
     fit-margin-right="0"
     fit-margin-bottom="0"
     inkscape:window-width="1846"
     inkscape:window-height="1016"
     inkscape:window-x="74"
     inkscape:window-y="27"
     inkscape:window-maximized="1" />
  <metadata
     id="metadata5">
    <rdf:RDF>
      <cc:Work
         rdf:about="">
        <dc:format>image/svg+xml</dc:format>
        <dc:type
           rdf:resource="http://purl.org/dc/dcmitype/StillImage" />
        <dc:title></dc:title>
      </cc:Work>
    </rdf:RDF>
  </metadata>
  <g
     inkscape:label="Layer 1"
     inkscape:groupmode="layer"
     id="layer1"
     transform="translate(-71.984746,-143.81052)">
    <g
       style="fill:none"
       id="g832"
       transform="matrix(0.26458333,0,0,0.26458333,50.85448,134.28142)">
      <text
         xml:space="preserve"
         style="font-style:normal;font-variant:normal;font-weight:normal;font-stretch:normal;font-size:40px;line-height:1.25;font-family:'Standard Symbols PS';-inkscape-font-specification:'Standard Symbols PS';letter-spacing:0px;word-spacing:0px;fill:#000000;fill-opacity:1;stroke:none"
         x="113.20501"
         y="27.643976"
         id="text867"><tspan
           sodipodi:role="line"
           id="tspan865"
           x="113.20501"
           y="63.763977" /></text>
      <g
         id="g863"
         transform="translate(-107.05806,-1.5742507e-6)">
        <circle
           id="circle834"
           r="17.724001"
           cy="53.739517"
           cx="204.64449"
           style="fill:#1fa12e;fill-opacity:1" />
        <path
           sodipodi:nodetypes="ccccccccccccccccccccccccc"
           inkscape:connector-curvature="0"
           id="path859"
           d="m 205.23085,42.026647 5.33264,6.786126 c 0.41081,0.679711 -0.0841,0.885879 -0.44749,0.870337 h -2.06451 l 3.92424,5.114849 c 0.50513,0.55928 0.0755,0.93502 -0.30262,0.94149 l -2.04721,0.0336 3.86888,5.0595 c 0.47562,0.60284 0.0187,1.02129 -0.37581,0.99109 l -6.28782,0.002 c 0.20326,1.33068 0.5146,2.29978 1.23613,3.19826 0.32442,0.55436 -0.16618,0.81734 -0.43508,0.80716 l -5.69411,0.006 c -0.70012,0.0434 -1.01897,-0.32842 -0.58759,-0.94148 0.70505,-0.85428 0.9264,-1.98562 1.17687,-3.06376 l -6.29597,-0.0297 c -0.48895,0.0377 -0.82453,-0.36118 -0.53002,-0.81685 l 4.01527,-5.2356 -2.03327,0.016 c -0.68682,0.0229 -0.65979,-0.53867 -0.44884,-0.88613 l 3.98129,-5.166488 -2.0511,-0.02563 c -0.48805,0.01163 -0.72281,-0.3858 -0.39756,-0.890036 l 5.36229,-6.794402 c 0.49967,-0.65322 0.834,-0.291361 1.10139,0.02405 z"
           style="fill:#ffffff;fill-opacity:1;stroke:#ffffff;stroke-width:0.07930251px;stroke-linecap:butt;stroke-linejoin:miter;stroke-opacity:1" />
      </g>
    </g>
  </g>
</svg>
