<?xml version="1.0" encoding="UTF-8" standalone="no"?>
<!-- Created with Inkscape (http://www.inkscape.org/) -->

<svg
   xmlns:dc="http://purl.org/dc/elements/1.1/"
   xmlns:cc="http://creativecommons.org/ns#"
   xmlns:rdf="http://www.w3.org/1999/02/22-rdf-syntax-ns#"
   xmlns:svg="http://www.w3.org/2000/svg"
   xmlns="http://www.w3.org/2000/svg"
   xmlns:sodipodi="http://sodipodi.sourceforge.net/DTD/sodipodi-0.dtd"
   xmlns:inkscape="http://www.inkscape.org/namespaces/inkscape"
   width="180.37117mm"
   height="136.11044mm"
   viewBox="0 0 180.37117 136.11044"
   version="1.1"
   id="svg8"
   inkscape:version="0.92.5 (2060ec1f9f, 2020-04-08)"
   sodipodi:docname="sdfd.svg">
  <defs
     id="defs2" />
  <sodipodi:namedview
     id="base"
     pagecolor="#ffffff"
     bordercolor="#666666"
     borderopacity="1.0"
     inkscape:pageopacity="0.0"
     inkscape:pageshadow="2"
     inkscape:zoom="0.56875"
     inkscape:cx="317.25805"
     inkscape:cy="130.42697"
     inkscape:document-units="mm"
     inkscape:current-layer="layer1"
     showgrid="false"
     inkscape:window-width="1846"
     inkscape:window-height="1016"
     inkscape:window-x="74"
     inkscape:window-y="27"
     inkscape:window-maximized="1"
     fit-margin-top="0"
     fit-margin-left="0"
     fit-margin-right="0"
     fit-margin-bottom="0" />
  <metadata
     id="metadata5">
    <rdf:RDF>
      <cc:Work
         rdf:about="">
        <dc:format>image/svg+xml</dc:format>
        <dc:type
           rdf:resource="http://purl.org/dc/dcmitype/StillImage" />
        <dc:title></dc:title>
      </cc:Work>
    </rdf:RDF>
  </metadata>
  <g
     inkscape:label="Layer 1"
     inkscape:groupmode="layer"
     id="layer1"
     transform="translate(35.11412,-45.439691)">
    <g
       id="g983"
       transform="matrix(0.03527778,0,0,-0.03527778,-35.239654,221.06124)"
       style="fill:#ffffff;stroke:none;fill-opacity:1">
      <path
         id="path959"
         d="M 4662,4911 C 4132,4554 3940,4179 4112,3834 l 32,-64 -47,-97 c -26,-54 -47,-108 -47,-119 0,-12 9,-33 21,-48 16,-20 29,-26 58,-26 47,0 57,10 114,126 l 46,91 88,6 c 292,19 477,162 553,427 47,162 36,459 -26,698 -31,121 -48,146 -100,150 -34,2 -53,-7 -142,-67 z m 111,-232 c 27,-130 34,-355 13,-459 -21,-100 -73,-207 -124,-252 -49,-42 -145,-85 -214,-96 -32,-5 -58,-8 -58,-7 0,1 35,76 79,166 102,214 171,373 171,397 0,11 -9,31 -21,46 -25,32 -86,37 -112,9 -8,-10 -49,-92 -90,-183 -41,-91 -97,-210 -124,-264 -48,-95 -51,-99 -63,-77 -6,13 -14,58 -17,100 -5,65 -1,88 22,156 36,109 114,221 228,332 98,95 265,225 282,219 6,-1 18,-40 28,-87 z"
         inkscape:connector-curvature="0"
         style="fill:#ffffff;fill-opacity:1" />
      <path
         id="path961"
         d="m 990,4753 c -225,-26 -360,-127 -400,-302 -24,-103 14,-312 63,-346 44,-31 185,-12 285,39 26,13 70,48 99,78 94,100 135,216 137,386 1,102 0,104 -27,128 -29,24 -61,28 -157,17 z m 23,-210 c -20,-153 -115,-272 -228,-285 -29,-3 -30,-1 -39,49 -16,96 11,178 75,226 35,25 125,56 166,57 h 33 z"
         inkscape:connector-curvature="0"
         style="fill:#ffffff;fill-opacity:1" />
      <path
         id="path963"
         d="m 2225,3590 c -635,-47 -1071,-191 -1161,-385 -24,-50 -24,-52 -24,-436 V 2383 L 613,2285 C 377,2231 171,2181 154,2174 107,2154 63,2114 32,2061 -4,1999 -6,1888 27,1824 c 29,-55 94,-109 154,-129 27,-9 49,-18 49,-20 0,-1 -38,-35 -85,-75 C 32,1504 5,1458 5,1365 c 1,-102 43,-173 135,-221 31,-17 60,-19 255,-19 304,0 398,20 703,151 96,40 175,74 177,74 2,0 9,-23 16,-52 16,-70 92,-148 161,-167 63,-18 232,-11 273,11 17,9 85,62 153,118 l 122,101 56,-61 c 72,-77 167,-134 268,-160 63,-16 111,-20 235,-20 249,0 359,38 490,167 l 73,73 125,-103 c 68,-56 136,-109 151,-116 37,-20 210,-27 267,-11 80,22 151,101 170,188 3,17 8,32 10,32 2,0 81,-34 177,-74 305,-131 399,-151 703,-151 206,0 222,1 260,22 88,47 129,117 130,218 0,93 -27,139 -140,235 -47,40 -82,76 -78,80 4,4 27,12 51,19 52,15 116,70 145,125 33,64 31,176 -5,237 -31,53 -75,93 -122,113 -18,7 -224,58 -459,111 l -427,98 v 386 c 0,384 0,386 -24,436 -82,177 -438,309 -996,370 -172,19 -663,27 -835,15 z m 650,-160 c 473,-32 884,-135 1011,-256 44,-40 43,-68 -2,-110 -114,-108 -463,-205 -879,-244 -177,-16 -208,-14 -332,27 l -113,37 -117,-38 c -117,-39 -117,-39 -235,-32 -399,22 -795,119 -948,231 -82,60 -78,101 16,161 179,114 562,200 1019,227 123,8 443,6 580,-3 z M 1413,2795 c 27,-7 27,-7 27,-97 0,-81 2,-91 25,-113 15,-16 36,-25 55,-25 19,0 40,9 55,25 22,21 25,33 25,90 0,63 1,65 23,60 12,-3 65,-14 117,-24 l 95,-18 5,-167 c 5,-161 6,-169 29,-187 32,-26 77,-24 106,6 24,23 25,28 25,176 v 152 l 58,-6 c 31,-4 92,-10 135,-13 l 77,-7 105,-174 105,-174 v -85 c 0,-77 2,-87 25,-109 15,-16 36,-25 55,-25 19,0 40,9 55,25 23,22 25,32 25,109 v 85 l 105,174 105,175 87,6 c 377,29 722,105 912,201 l 71,35 v -297 c 0,-164 4,-304 9,-311 5,-8 235,-206 512,-440 328,-278 507,-436 513,-454 13,-37 -8,-83 -45,-99 -22,-8 -83,-10 -227,-6 -294,8 -291,7 -862,253 l -345,148 -101,1 c -96,0 -103,-2 -177,-38 -69,-34 -87,-50 -169,-146 -105,-122 -154,-163 -230,-194 -48,-20 -71,-22 -238,-22 -167,0 -190,2 -238,22 -76,31 -125,72 -230,194 -82,96 -100,112 -169,146 -74,36 -81,38 -177,38 H 1645 L 1305,1538 C 729,1290 732,1291 438,1283 c -144,-4 -205,-2 -227,6 -37,16 -58,62 -45,99 6,18 185,176 513,453 277,235 507,433 512,440 5,8 9,148 9,311 v 297 l 93,-44 c 50,-24 104,-47 120,-50 z m 1219,-103 47,-17 -57,-97 c -31,-54 -59,-98 -62,-98 -3,0 -31,44 -62,98 l -57,97 47,17 c 26,9 58,16 72,16 14,0 46,-7 72,-16 z M 790,2146 c -8,-8 -93,-80 -188,-160 L 429,1840 h -95 c -106,0 -143,13 -162,55 -19,41 -14,72 16,105 25,28 47,34 302,94 151,35 284,64 295,65 17,1 17,-1 5,-13 z m 3832,-51 c 264,-61 285,-67 311,-95 29,-33 34,-64 15,-105 -19,-42 -56,-55 -162,-55 h -95 l -173,146 c -203,171 -206,174 -191,174 6,0 139,-29 295,-65 z M 1841,1509 c 27,-12 49,-24 48,-28 0,-6 -42,-41 -181,-153 l -59,-48 h -80 c -72,0 -82,2 -105,25 -21,21 -25,33 -22,72 l 3,48 125,52 c 143,60 192,66 271,32 z m 1719,-35 115,-50 3,-47 c 3,-39 -1,-51 -22,-72 -23,-23 -33,-25 -105,-25 h -80 l -58,47 c -32,25 -87,71 -122,102 l -64,55 49,24 c 75,35 142,27 284,-34 z"
         inkscape:connector-curvature="0"
         style="fill:#ffffff;fill-opacity:1" />
      <path
         id="path965"
         d="m 2105,3335 c -16,-15 -25,-36 -25,-55 0,-19 9,-40 25,-55 21,-22 33,-25 95,-25 62,0 74,3 95,25 16,15 25,36 25,55 0,19 -9,40 -25,55 -21,22 -33,25 -95,25 -62,0 -74,-3 -95,-25 z"
         inkscape:connector-curvature="0"
         style="fill:#ffffff;fill-opacity:1" />
      <path
         id="path967"
         d="m 2506,3337 c -33,-33 -35,-79 -3,-111 21,-21 34,-23 188,-29 166,-7 472,-41 512,-57 13,-5 16,-9 7,-9 -8,-1 -55,-6 -103,-11 -400,-46 -1000,-23 -1445,55 -78,14 -149,25 -158,25 -26,0 -64,-47 -64,-78 0,-53 26,-72 128,-93 298,-61 632,-91 1012,-92 371,-1 594,18 914,79 153,30 186,47 186,101 0,50 -24,70 -123,102 -248,79 -534,125 -861,138 l -164,6 z"
         inkscape:connector-curvature="0"
         style="fill:#ffffff;fill-opacity:1" />
      <path
         id="path969"
         d="m 3625,2615 c -22,-21 -25,-33 -25,-95 0,-62 3,-74 25,-95 15,-16 36,-25 55,-25 19,0 40,9 55,25 22,21 25,33 25,95 0,62 -3,74 -25,95 -15,16 -36,25 -55,25 -19,0 -40,-9 -55,-25 z"
         inkscape:connector-curvature="0"
         style="fill:#ffffff;fill-opacity:1" />
      <path
         id="path971"
         d="m 3145,2535 c -22,-21 -25,-33 -25,-95 0,-62 3,-74 25,-95 15,-16 36,-25 55,-25 19,0 40,9 55,25 22,21 25,33 25,95 0,62 -3,74 -25,95 -15,16 -36,25 -55,25 -19,0 -40,-9 -55,-25 z"
         inkscape:connector-curvature="0"
         style="fill:#ffffff;fill-opacity:1" />
      <path
         id="path973"
         d="m 1465,2375 c -22,-21 -25,-33 -25,-95 0,-62 3,-74 25,-95 15,-16 36,-25 55,-25 19,0 40,9 55,25 22,21 25,33 25,95 0,62 -3,74 -25,95 -15,16 -36,25 -55,25 -19,0 -40,-9 -55,-25 z"
         inkscape:connector-curvature="0"
         style="fill:#ffffff;fill-opacity:1" />
      <path
         id="path975"
         d="m 3149,2221 c -21,-17 -25,-30 -29,-112 -4,-73 -9,-94 -22,-103 -31,-19 -52,5 -58,64 -4,39 -12,57 -29,71 -33,27 -77,24 -108,-7 -24,-24 -25,-31 -21,-95 9,-125 80,-194 199,-194 54,0 72,5 106,27 70,46 87,86 91,210 4,104 3,108 -21,132 -31,31 -75,34 -108,7 z"
         inkscape:connector-curvature="0"
         style="fill:#ffffff;fill-opacity:1" />
      <path
         id="path977"
         d="m 3625,2215 c -24,-23 -25,-31 -25,-135 0,-104 1,-112 25,-135 15,-16 36,-25 55,-25 19,0 40,9 55,25 24,23 25,31 25,135 0,104 -1,112 -25,135 -15,16 -36,25 -55,25 -19,0 -40,-9 -55,-25 z"
         inkscape:connector-curvature="0"
         style="fill:#ffffff;fill-opacity:1" />
      <path
         id="path979"
         d="m 1865,2135 c -22,-21 -25,-33 -25,-95 0,-62 3,-74 25,-95 15,-16 36,-25 55,-25 19,0 40,9 55,25 22,21 25,33 25,95 0,62 -3,74 -25,95 -15,16 -36,25 -55,25 -19,0 -40,-9 -55,-25 z"
         inkscape:connector-curvature="0"
         style="fill:#ffffff;fill-opacity:1" />
      <path
         id="path981"
         d="m 2505,1895 c -22,-21 -25,-33 -25,-95 0,-62 3,-74 25,-95 15,-16 36,-25 55,-25 19,0 40,9 55,25 22,21 25,33 25,95 0,62 -3,74 -25,95 -15,16 -36,25 -55,25 -19,0 -40,-9 -55,-25 z"
         inkscape:connector-curvature="0"
         style="fill:#ffffff;fill-opacity:1" />
    </g>
  </g>
</svg>
