<?xml version="1.0" encoding="UTF-8" standalone="no"?>
<!-- Created with Inkscape (http://www.inkscape.org/) -->

<svg
   xmlns:dc="http://purl.org/dc/elements/1.1/"
   xmlns:cc="http://creativecommons.org/ns#"
   xmlns:rdf="http://www.w3.org/1999/02/22-rdf-syntax-ns#"
   xmlns:svg="http://www.w3.org/2000/svg"
   xmlns="http://www.w3.org/2000/svg"
   xmlns:sodipodi="http://sodipodi.sourceforge.net/DTD/sodipodi-0.dtd"
   xmlns:inkscape="http://www.inkscape.org/namespaces/inkscape"
   width="96.871864mm"
   height="73.617699mm"
   viewBox="0 0 96.871864 73.617699"
   version="1.1"
   id="svg8"
   inkscape:version="0.92.5 (2060ec1f9f, 2020-04-08)"
   sodipodi:docname="thick-bg-element.svg">
  <defs
     id="defs2" />
  <sodipodi:namedview
     id="base"
     pagecolor="#ffffff"
     bordercolor="#666666"
     borderopacity="1.0"
     inkscape:pageopacity="0.0"
     inkscape:pageshadow="2"
     inkscape:zoom="1.1792308"
     inkscape:cx="133.90862"
     inkscape:cy="20.044085"
     inkscape:document-units="mm"
     inkscape:current-layer="layer1"
     showgrid="false"
     fit-margin-top="0"
     fit-margin-left="0"
     fit-margin-right="0"
     fit-margin-bottom="0"
     inkscape:window-width="1846"
     inkscape:window-height="1016"
     inkscape:window-x="74"
     inkscape:window-y="27"
     inkscape:window-maximized="1" />
  <metadata
     id="metadata5">
    <rdf:RDF>
      <cc:Work
         rdf:about="">
        <dc:format>image/svg+xml</dc:format>
        <dc:type
           rdf:resource="http://purl.org/dc/dcmitype/StillImage" />
        <dc:title></dc:title>
      </cc:Work>
    </rdf:RDF>
  </metadata>
  <g
     inkscape:label="Layer 1"
     inkscape:groupmode="layer"
     id="layer1"
     transform="translate(1.229185,-82.030865)">
    <g
       style="fill:none"
       id="g829"
       transform="matrix(0.11803005,-0.2367979,0.2367979,0.11803005,-2.0804053,145.4048)">
      <path
         id="path815"
         d="M 67.8154,74.7501 C 61.5545,68.0973 56.7085,62.5618 53.3622,58.6056 20.1544,48.7273 5.85219,0.677734 5.85219,0.677734 48.1579,21.8441 55.3179,47.6638 56.5216,56.4063 60.4413,61.0353 66.3861,67.7892 74.2253,75.9416 67.2703,64.7625 56.3015,41.9326 58.5345,11.6974 58.5183,11.6635 91.6621,46.7071 80.1511,81.9987 88.7818,90.6718 99.2315,100.541 111.374,110.905 101.665,98.4519 87.5354,73.4165 92.779,37.4894 c 0,0 39.395,31.8289 27.34,80.7186 5.884,4.806 12.112,9.681 18.673,14.558 19.683,14.639 43.992,30.453 72.293,44.574 -12.491,-10.439 -38.012,-38.448 -36.369,-92.0961 -0.001,4e-4 0.027,0.0189 0.084,0.0554 2.373,1.541 54.21,35.1977 43.241,95.4377 18.696,8.932 39.036,17.06 60.85,23.612 -14.13,-10.205 -62.059,-49.072 -68.626,-110.9237 0,0 50.925,6.3133 72.211,111.9827 14.556,4.224 29.753,7.738 45.544,10.317 -15.812,-11.649 -50.495,-47.718 -80.81,-151.9706 0,6e-4 0.022,0.0182 0.063,0.0528 2.594,2.1642 84.677,70.6548 89.261,153.2078 12.909,1.806 26.199,2.976 39.842,3.394 1.045,0.05 1.883,0.916 1.825,1.955 -0.034,0.733 -0.459,1.357 -1.083,1.655 -0.277,0.132 -0.587,0.195 -0.896,0.173 -18.132,-0.558 -35.644,-2.431 -52.474,-5.346 -55.173,80.202 -127.2,88.803 -127.2,88.803 36.183,-64.705 107.472,-85.233 124.417,-89.296 -13.644,-2.467 -26.834,-5.617 -39.538,-9.301 -37.865,46.418 -126.174,53.732 -126.174,53.732 52.945,-57.228 109.884,-55.806 123.48,-54.524 -18.663,-5.553 -36.262,-12.253 -52.692,-19.626 -57.955,53.666 -122.804,42.577 -122.804,42.577 36.917,-38.467 98.695,-43.799 118.577,-44.501 -16.097,-7.426 -31.037,-15.476 -44.717,-23.689 -43.175,36.352 -122.2184,21.087 -122.2003,21.036 52.1843,-37.673 99.0263,-29.622 116.3653,-24.595 -12.843,-7.958 -24.502,-16.006 -34.886,-23.731 -2.503,-1.863 -4.959,-3.725 -7.365,-5.583 -52.735,31.799 -99.0075,13.282 -101.1427,12.428 -0.0499,-0.02 -0.0761,-0.03 -0.0769,-0.03 C 67.0817,116.015 111.668,124.16 125.988,127.796 115.837,119.839 106.587,111.982 98.2903,104.512 54.1125,126.776 9.07213,104.88 9.07213,104.88 49.6498,83.0353 82.6078,95.1492 94.601,101.16 86.1829,93.4375 78.8275,86.192 72.5964,79.7577 31.6187,95.1849 0.69043,71.8598 0.69043,71.8598 36.4579,60.4847 58.1334,68.83 67.8154,74.7501 Z"
         inkscape:connector-curvature="0"
         style="fill:#d9e9e5;fill-opacity:0.3" />
      <path
         id="path817"
         d="m 129.489,63.5423 c 0,0 -11.979,58.6647 43.063,92.2107 -0.001,0.001 0.005,-0.018 0.017,-0.055 v -0.002 c 0.613,-1.918 16.535,-51.787 -43.08,-92.1537 z"
         inkscape:connector-curvature="0"
         style="fill:#d9e9e5;fill-opacity:0.3" />
    </g>
  </g>
</svg>
