<?xml version="1.0" encoding="UTF-8" standalone="no"?>
<!-- Created with Inkscape (http://www.inkscape.org/) -->

<svg
   xmlns:dc="http://purl.org/dc/elements/1.1/"
   xmlns:cc="http://creativecommons.org/ns#"
   xmlns:rdf="http://www.w3.org/1999/02/22-rdf-syntax-ns#"
   xmlns:svg="http://www.w3.org/2000/svg"
   xmlns="http://www.w3.org/2000/svg"
   xmlns:sodipodi="http://sodipodi.sourceforge.net/DTD/sodipodi-0.dtd"
   xmlns:inkscape="http://www.inkscape.org/namespaces/inkscape"
   width="109.70415mm"
   height="125.27351mm"
   viewBox="0 0 109.70414 125.2735"
   version="1.1"
   id="svg8"
   inkscape:version="0.92.5 (2060ec1f9f, 2020-04-08)"
   sodipodi:docname="thick-dark-bg-element-22.svg">
  <defs
     id="defs2" />
  <sodipodi:namedview
     id="base"
     pagecolor="#ffffff"
     bordercolor="#666666"
     borderopacity="1.0"
     inkscape:pageopacity="0.0"
     inkscape:pageshadow="2"
     inkscape:zoom="1.4142136"
     inkscape:cx="193.20671"
     inkscape:cy="192.30871"
     inkscape:document-units="mm"
     inkscape:current-layer="layer1"
     showgrid="false"
     fit-margin-top="0"
     fit-margin-left="0"
     fit-margin-right="0"
     fit-margin-bottom="0"
     inkscape:window-width="1846"
     inkscape:window-height="1016"
     inkscape:window-x="74"
     inkscape:window-y="27"
     inkscape:window-maximized="1" />
  <metadata
     id="metadata5">
    <rdf:RDF>
      <cc:Work
         rdf:about="">
        <dc:format>image/svg+xml</dc:format>
        <dc:type
           rdf:resource="http://purl.org/dc/dcmitype/StillImage" />
        <dc:title></dc:title>
      </cc:Work>
    </rdf:RDF>
  </metadata>
  <g
     inkscape:label="Layer 1"
     inkscape:groupmode="layer"
     id="layer1"
     transform="translate(44.377525,-60.496913)">
    <g
       transform="translate(-14.56341,-10.68347)"
       id="layer1-1"
       inkscape:label="Layer 1">
      <g
         transform="matrix(0.05030218,-0.25975763,0.25975763,0.05030218,-37.765644,192.48606)"
         id="g891"
         style="fill:none">
        <path
           sodipodi:nodetypes="ccccccccccccccccccccccccccccccccccccccccccccccccc"
           style="fill:#4b665f;fill-opacity:0.11764706"
           inkscape:connector-curvature="0"
           d="M 250.169,134.2 C 234.83,118.97 191.06,69.1678 194.874,0 c 0,0.00126841 0.033,0.0257035 0.095,0.0733537 C 197.65,2.11042 255.727,46.2496 255.397,136.226 c 4.146,1.624 8.334,3.307 12.558,5.049 17.522,7.228 36.408,15.812 56.072,25.95 C 304.668,149.254 259.32,96.5513 267.448,2.85809 c 0.05,-0.06048 78.681,87.61071 65.44,169.01391 20.613,10.995 41.968,23.692 63.41,38.309 -14.067,-25.457 -53.818,-106.925 -33.212,-182.0673 0,0 62.707,73.0043 38.809,185.9253 21.627,15.074 43.31022,32.08018 64.32822,51.32018 C 454.39122,249.27818 409.753,178.981 441.898,69.6633 c 0,0 57.23522,116.18488 27.34322,198.47888 14.186,13.167 28.03778,27.38382 41.39978,42.64282 -5.37713,-17.11187 -20.73104,-74.19963 -10.43206,-139.24915 7.40902,38.22133 17.81141,91.96204 23.00583,118.77666 -2.91632,7.72279 -6.18985,15.58486 -9.85498,23.57109 6.46082,7.4884 12.72521,15.17373 18.90942,23.18859 0.88795,4.59764 1.88346,9.77315 2.38844,12.33519 -4.58421,-6.19472 -9.2372,-12.20641 -13.99365,-18.09738 -107.244,56.161 -255.082,4.594 -259.754,2.965 -0.074,-0.026 -0.113,-0.04 -0.113,-0.04 C 414.67,294.067 486.102,310.509 512.638,321.6 497.522,303.734 481.70322,287.27318 465.44722,272.18918 316.57922,324.74118 270.322,265.655 270.322,265.655 c 82.703,-38.148 167.63522,-7.23682 191.09622,2.83018 -24.64,-22.439 -50.18022,-41.81018 -75.46822,-58.55618 -67.495,58.93 -148.79,19.168 -152.512,17.348 -0.045,-0.022 -0.079,-0.039 -0.101,-0.049 -0.021,-0.011 -0.032,-0.016 -0.032,-0.015 66.214,-42.29 120.618,-31.297 143.14,-23.461 -39.034,-24.899 -77.196,-43.521 -110.401,-57.225 -11.067,-4.569 -21.88,-8.724 -32.347,-12.497 -52.407,51.78 -122.049,26.249 -122.049,26.249 41.229,-33.517 83.33,-34.575 106.29,-31.739 -22.162,-7.454 -42.428,-13.156 -59.822,-17.475 -35.718,40.9 -104.7014,25.619 -104.6467,25.614 36.3336,-25.472 73.2837,-28.84 92.5707,-28.503 -16.145,-3.716 -29.106,-6.106 -37.873,-7.549 C 96.266,105.674 58.4195,116.053 0,78.8798 c 0,0 71.1726,-18.1004 108.563,16.1367 7.491,1.2295 18.095,3.1553 31.169,6.0175 -14.723,-7.6992 -41.52,-28.6201 -54.1145,-82.0092 0,0 52.5845,21.2915 64.0005,84.2482 12.778,2.988 27.422,6.779 43.465,11.545 -16.57,-10.526 -56.598,-42.7691 -59.644,-110.04718 0,0 61.4,40.06028 66.625,112.15718 15.63,4.802 32.466,10.51 50.105,17.272 z"
           id="path877" />
        <path
           style="fill:#4b665f;fill-opacity:0.11764706"
           inkscape:connector-curvature="0"
           d="m 172.011,186.775 c 0,0 64.754,-59.016 148.321,-15.153 0,0 -10e-4,10e-4 -0.003,0.004 -0.003,0.002 -0.007,0.007 -0.013,0.014 -0.01,0.011 -0.024,0.026 -0.042,0.047 v 0 c -1.952,2.207 -52.682,59.571 -148.263,15.088 z"
           id="path879" />
      </g>
    </g>
  </g>
</svg>
