<svg width="362" height="305" viewBox="0 0 362 305" fill="none" xmlns="http://www.w3.org/2000/svg">
<path d="M356.993 0.244934C358.468 0.894039 359.134 2.60499 358.515 4.08054C352.617 17.6181 345.565 30.805 337.606 43.6566L357.791 33.7371C359.229 33.0239 360.986 33.6288 361.7 35.0646C362.414 36.5003 361.808 38.255 360.37 38.9682L331.528 53.165C326.126 61.2941 320.361 69.2766 314.296 77.1167L357.377 70.7383C358.971 70.4985 360.448 71.6115 360.688 73.2029C360.957 74.827 359.814 76.2696 358.22 76.5094L309.018 83.77C302.301 92.1255 295.224 100.304 287.882 108.28L342.781 102.954C344.4 102.808 345.811 103.979 345.99 105.566C346.136 107.182 344.963 108.592 343.374 108.771L281.904 114.735C275.837 121.122 269.592 127.406 263.233 133.527L344.873 133.591C346.482 133.599 347.765 134.855 347.783 136.525C347.775 138.131 346.485 139.441 344.845 139.431L257.078 139.353C249.875 146.101 242.527 152.686 235.067 159.079L318.879 160.546C320.486 160.585 321.795 161.904 321.756 163.509C321.717 165.113 320.396 166.421 318.789 166.382L228.333 164.775C220.361 171.444 212.308 177.923 204.238 184.185L295.49 193.291C297.089 193.453 298.301 194.858 298.106 196.484C297.943 198.081 296.507 199.258 294.908 199.095L197.442 189.383C188.471 196.175 179.486 202.719 170.579 208.989L268.271 227.896C269.86 228.212 270.91 229.731 270.593 231.318C270.276 232.905 268.756 233.953 267.166 233.637L163.911 213.639C155.498 219.446 147.193 225.013 138.998 230.308L230.299 252.893C231.884 253.27 232.837 254.845 232.428 256.426C232.052 257.979 230.442 258.959 228.89 258.553L132.225 234.642C124.293 239.707 116.501 244.502 108.94 249.065L195.268 274.427C196.817 274.896 197.707 276.497 197.238 278.044C196.769 279.59 195.165 280.479 193.616 280.011L102.123 253.118C90.2261 260.189 78.9614 266.559 68.6063 272.244L156.447 294.24C157.999 294.647 158.983 296.223 158.576 297.774C158.2 299.326 156.592 300.276 155.038 299.9L61.0438 276.343C27.4041 294.472 4.89524 304.431 4.10127 304.752C2.60581 305.4 0.883507 304.735 0.234865 303.242C0.0981953 302.955 0.0250176 302.642 0.0116564 302.363C-0.0976208 301.15 0.56768 299.925 1.74516 299.412C2.5083 299.089 24.7938 289.24 58.1116 271.306L67.2063 176.621C67.3689 175.024 68.8048 173.847 70.4059 173.978C72.005 174.141 73.2145 175.577 73.052 177.174L64.3289 267.926C75.0347 262.078 86.7485 255.458 99.1274 248.108L99.3609 144.737C99.3694 143.13 100.69 141.822 102.299 141.83C103.907 141.839 105.186 143.156 105.209 144.764L105.009 244.645C112.826 239.944 120.877 234.979 129.099 229.748L124.538 126.817C124.454 125.204 125.717 123.831 127.329 123.778C128.944 123.694 130.346 125.018 130.373 126.565L134.775 226.117C143.261 220.624 151.918 214.863 160.655 208.829L154.323 95.7109C154.239 94.0984 155.47 92.7233 157.085 92.6393C158.7 92.5554 160.167 93.822 160.161 95.3979L166.287 204.918C175.482 198.48 184.759 191.738 193.989 184.746L185.943 77.2071C185.828 75.5927 187.031 74.1847 188.648 74.07C190.234 73.9533 191.615 75.1219 191.762 76.7074C191.76 76.7382 191.76 76.7383 191.758 76.7691L199.519 180.488C207.944 174.002 216.322 167.265 224.622 160.307L215.629 67.792C215.483 66.1757 216.656 64.7659 218.245 64.5877C219.864 64.4422 221.276 65.6126 221.454 67.2001L230.05 155.704C237.804 149.051 245.476 142.24 252.976 135.201L233.917 60.4731C233.865 60.3153 233.844 60.1595 233.852 60.0363C233.724 58.6374 234.614 57.2717 236.029 56.9279C237.601 56.5322 239.183 57.4661 239.579 59.0364L257.814 130.621C264.896 123.834 271.834 116.883 278.563 109.796L259.417 45.7881C259.367 45.5995 259.317 45.4108 259.298 45.2241C259.167 43.856 260.023 42.5499 261.38 42.1407C262.925 41.6815 264.573 42.5577 265.032 44.1011L283.178 104.832C290.553 96.8268 297.661 88.6504 304.378 80.2949L289.228 32.4246C289.178 32.2361 289.13 32.0167 289.111 31.83C288.978 30.4927 289.804 29.1847 291.129 28.7736C292.677 28.2836 294.326 29.129 294.816 30.6743L308.752 74.7284C314.948 66.7729 320.846 58.6441 326.35 50.3669L312.802 14.8987C312.694 14.6446 312.648 14.3945 312.633 14.1463C312.497 12.8705 313.256 11.6201 314.494 11.1416C316.016 10.5573 317.702 11.3123 318.256 12.8307L330.291 44.3094C339.053 30.5191 346.787 16.3243 353.156 1.70363C353.771 0.28965 355.517 -0.40417 356.993 0.244934Z" fill="#D9E9E5" fill-opacity="0.5"/>
</svg>
